<svg xmlns="http://www.w3.org/2000/svg" viewBox="0 0 12.26 16.74"><defs><style>.cls-1{fill:#ddd;}.cls-1,.cls-2{fill-rule:evenodd;}.cls-2{fill:#ccc;}</style></defs><g id="Layer_2" data-name="Layer 2"><g id="Layer_1-2" data-name="Layer 1"><polygon class="cls-1" points="5.11 6.24 8.25 11.12 9.27 9.53 6.13 4.65 5.11 6.24"/><polygon class="cls-2" points="8.25 7.95 9.27 9.53 4.63 16.74 3.62 15.15 8.25 7.95"/><polygon class="cls-1" points="6.13 0 5.11 1.58 11.24 11.12 12.26 9.53 6.13 0"/><polygon class="cls-1" points="6.13 0 7.15 1.58 1.02 11.12 0 9.53 6.13 0"/><polygon class="cls-1" points="6.13 4.65 7.15 6.24 4.01 11.12 2.99 9.53 6.13 4.65"/><polygon class="cls-2" points="11.24 7.95 12.26 9.53 7.63 16.74 6.61 15.15 11.24 7.95"/><polygon class="cls-2" points="4.01 7.95 2.99 9.53 7.63 16.74 8.65 15.15 4.01 7.95"/><polygon class="cls-2" points="1.02 7.95 0 9.53 4.63 16.74 5.65 15.15 1.02 7.95"/></g></g></svg>